<svg width="25" height="20" viewBox="0 0 25 20" fill="none" xmlns="http://www.w3.org/2000/svg">
<path d="M21.1636 1.78104C19.5701 1.02599 17.8614 0.469697 16.0749 0.151086C16.0424 0.144937 16.0099 0.160304 15.9931 0.191039C15.7733 0.594679 15.5299 1.12126 15.3595 1.53515C13.4379 1.23806 11.5262 1.23806 9.64408 1.53515C9.47359 1.11206 9.22134 0.594679 9.0006 0.191039C8.98384 0.16133 8.95134 0.145963 8.9188 0.151086C7.13324 0.468679 5.42454 1.02497 3.83014 1.78104C3.81634 1.78719 3.80451 1.79744 3.79666 1.81075C0.555616 6.81126 -0.33224 11.6889 0.103313 16.506C0.105283 16.5296 0.118094 16.5521 0.135831 16.5664C2.27418 18.1882 4.34553 19.1727 6.37842 19.8253C6.41095 19.8356 6.44542 19.8233 6.46613 19.7956C6.94701 19.1174 7.37567 18.4023 7.7432 17.6503C7.76489 17.6063 7.74419 17.554 7.69986 17.5366C7.01993 17.2702 6.3725 16.9455 5.74972 16.5767C5.70046 16.547 5.69651 16.4742 5.74183 16.4394C5.87289 16.338 6.00398 16.2324 6.12912 16.1259C6.15176 16.1064 6.18331 16.1023 6.20993 16.1146C10.3013 18.0437 14.7308 18.0437 18.7739 16.1146C18.8005 16.1013 18.8321 16.1054 18.8557 16.1249C18.9809 16.2314 19.1119 16.338 19.244 16.4394C19.2893 16.4742 19.2863 16.547 19.2371 16.5767C18.6143 16.9526 17.9669 17.2702 17.2859 17.5356C17.2416 17.553 17.2219 17.6063 17.2436 17.6503C17.619 18.4013 18.0477 19.1164 18.5197 19.7946C18.5394 19.8233 18.5749 19.8356 18.6074 19.8253C20.6501 19.1727 22.7215 18.1882 24.8598 16.5664C24.8786 16.5521 24.8904 16.5306 24.8924 16.507C25.4136 10.9379 24.0193 6.10028 21.1961 1.81177C21.1892 1.79744 21.1774 1.78719 21.1636 1.78104ZM8.35419 13.5729C7.12239 13.5729 6.10743 12.405 6.10743 10.9707C6.10743 9.53639 7.10271 8.3685 8.35419 8.3685C9.61549 8.3685 10.6206 9.54664 10.6009 10.9707C10.6009 12.405 9.60563 13.5729 8.35419 13.5729ZM16.6612 13.5729C15.4294 13.5729 14.4145 12.405 14.4145 10.9707C14.4145 9.53639 15.4097 8.3685 16.6612 8.3685C17.9225 8.3685 18.9276 9.54664 18.908 10.9707C18.908 12.405 17.9225 13.5729 16.6612 13.5729Z" fill="#FFE001"/>
</svg>
