<svg width="24" height="20" viewBox="0 0 24 20" fill="none" xmlns="http://www.w3.org/2000/svg">
<path d="M21.9539 0.176567C21.9539 0.176567 24.1741 -0.68915 23.989 1.4133C23.9274 2.27902 23.3723 5.30903 22.9406 8.58638L21.4605 18.2948C21.4605 18.2948 21.3372 19.717 20.2271 19.9644C19.117 20.2117 17.4519 19.0987 17.1435 18.8513C16.8968 18.6658 12.5181 15.8831 10.9764 14.5227C10.5447 14.1517 10.0513 13.4097 11.038 12.5439L17.5135 6.36026C18.2536 5.61821 18.9937 3.88678 15.9101 5.98924L7.27606 11.8637C7.27606 11.8637 6.28932 12.4821 4.43917 11.9256L0.430525 10.6888C0.430525 10.6888 -1.04959 9.76129 1.47894 8.83373C7.64609 5.9274 15.2317 2.95923 21.9539 0.176567Z" fill="#FFE001"/>
</svg>
