<svg width="14" height="13" viewBox="0 0 14 13" fill="none" xmlns="http://www.w3.org/2000/svg">
<path d="M3.36066 3.36066L2.77049 1H1M3.36066 3.36066H12.4098L11.1215 8.83588C10.9543 9.54676 10.3199 10.0492 9.58964 10.0492H6.34256C5.62846 10.0492 5.00388 9.56839 4.82116 8.87814L3.36066 3.36066Z" stroke="#212121" stroke-width="1.23529" stroke-linecap="round" stroke-linejoin="round"/>
<path d="M5.13118 13.0001C5.56577 13.0001 5.91807 12.6478 5.91807 12.2132C5.91807 11.7786 5.56577 11.4263 5.13118 11.4263C4.6966 11.4263 4.3443 11.7786 4.3443 12.2132C4.3443 12.6478 4.6966 13.0001 5.13118 13.0001Z" fill="#212121"/>
<path d="M10.6394 13.0001C11.0739 13.0001 11.4262 12.6478 11.4262 12.2132C11.4262 11.7786 11.0739 11.4263 10.6394 11.4263C10.2048 11.4263 9.85248 11.7786 9.85248 12.2132C9.85248 12.6478 10.2048 13.0001 10.6394 13.0001Z" fill="#212121"/>
</svg>
