<svg width="17" height="17" viewBox="0 0 17 17" fill="none" xmlns="http://www.w3.org/2000/svg">
<path d="M4.10345 4.10345L3.32759 1H1M4.10345 4.10345H16L14.3063 11.3015C14.0864 12.236 13.2525 12.8966 12.2924 12.8966H8.02362C7.08483 12.8966 6.26373 12.2645 6.02351 11.357L4.10345 4.10345Z" stroke="#FFE001" stroke-width="1.5" stroke-linecap="round" stroke-linejoin="round"/>
<path d="M6.43104 16.7759C7.00236 16.7759 7.46552 16.3127 7.46552 15.7414C7.46552 15.1701 7.00236 14.7069 6.43104 14.7069C5.85971 14.7069 5.39655 15.1701 5.39655 15.7414C5.39655 16.3127 5.85971 16.7759 6.43104 16.7759Z" fill="#FFE001"/>
<path d="M13.6724 16.7759C14.2437 16.7759 14.7069 16.3127 14.7069 15.7414C14.7069 15.1701 14.2437 14.7069 13.6724 14.7069C13.1011 14.7069 12.6379 15.1701 12.6379 15.7414C12.6379 16.3127 13.1011 16.7759 13.6724 16.7759Z" fill="#FFE001"/>
</svg>
